<svg width="111" height="11" viewBox="0 0 111 11" fill="none" xmlns="http://www.w3.org/2000/svg">
<g clip-path="url(#clip0_10020_245)">
<path d="M58.1424 3.79396C57.9718 4.16318 57.8012 4.51966 57.6437 4.88887C56.8695 6.7604 56.0822 8.64466 55.3211 10.5289C55.2161 10.7835 55.0849 10.8981 54.7831 10.8981C53.6021 10.8981 53.6284 10.9109 53.1822 9.81595C52.3949 7.88077 51.5944 5.95832 50.8071 4.03586C50.7677 3.94674 50.7152 3.85762 50.5578 3.78123C50.5315 3.94674 50.5053 4.11225 50.5053 4.29049C50.5053 6.3148 50.5053 8.3391 50.5053 10.3761C50.5053 10.9745 50.5053 10.9745 49.8754 10.9745C49.4949 10.9745 49.1144 10.9491 48.7338 10.9745C48.3795 11 48.3008 10.8599 48.3008 10.5416C48.3139 8.05901 48.3008 5.5891 48.3008 3.10646C48.3008 2.20253 48.3139 1.29859 48.3008 0.40739C48.3008 0.101835 48.3926 0.0127146 48.6944 0.0254461C49.403 0.0381775 50.1116 0.0381775 50.8202 0.0254461C51.0695 0.0254461 51.2139 0.101835 51.3057 0.331002C52.2243 2.54628 53.156 4.76156 54.0876 6.97683C54.1532 7.14234 54.2582 7.29512 54.3894 7.53702C54.5207 7.33332 54.6125 7.206 54.6781 7.07869C55.5704 4.96526 56.4627 2.8391 57.355 0.725677C57.4207 0.5729 57.4731 0.394659 57.5781 0.254613C57.6568 0.152761 57.8143 0.0254461 57.9455 0.0254461C58.7066 -1.69091e-05 59.4808 0.0254461 60.2419 0.0127146C60.5962 -1.69091e-05 60.5437 0.22915 60.5437 0.432853C60.5437 2.8773 60.5437 5.33447 60.5437 7.77892C60.5437 8.72105 60.5306 9.66318 60.5437 10.6053C60.5437 10.8599 60.465 10.9618 60.2025 10.9491C59.7433 10.9363 59.2709 10.9236 58.8116 10.9491C58.4442 10.9745 58.3392 10.8472 58.3392 10.5035C58.3523 8.44095 58.3523 6.36572 58.3392 4.30322C58.3392 4.13771 58.2998 3.9722 58.2736 3.79396C58.2342 3.79396 58.1817 3.79396 58.1424 3.79396Z" fill="white"/>
<path d="M103.886 4.06108C103.873 4.23932 103.834 4.40483 103.834 4.58307C103.834 6.53098 103.834 8.4789 103.834 10.4268C103.834 10.9488 103.834 10.9488 103.296 10.9488C102.876 10.9488 102.443 10.9233 102.023 10.9615C101.668 10.987 101.55 10.8597 101.563 10.5159C101.577 8.37705 101.577 6.22543 101.577 4.08654C101.577 2.86432 101.59 1.65483 101.577 0.432604C101.577 0.127049 101.655 -0.0129973 101.996 0.0251971C102.18 0.0506601 102.377 0.0251971 102.574 0.0251971C103.663 0.0251971 103.65 0.0379286 104.254 0.903669C105.644 2.88978 107.049 4.85043 108.439 6.82381C108.479 6.87473 108.531 6.91293 108.676 7.06571C108.715 6.81108 108.754 6.64557 108.754 6.48006C108.754 4.49395 108.768 2.50784 108.754 0.521725C108.754 0.152512 108.846 -0.0129973 109.253 0.0251971C109.699 0.0633916 110.158 0.0506601 110.605 0.0251971C110.946 0.0124656 111.051 0.114317 111.038 0.445336C111.025 2.66061 111.025 4.86316 111.025 7.07844C111.025 8.21154 111.011 9.35737 111.038 10.4905C111.051 10.8851 110.906 11.0125 110.526 10.9615C110.395 10.9488 110.25 10.9615 110.119 10.9615C108.977 10.9615 108.991 10.9488 108.361 10.0576C106.996 8.14788 105.658 6.27635 104.319 4.3921C104.227 4.26478 104.122 4.1502 104.017 4.03561C103.965 4.03561 103.925 4.04834 103.886 4.06108Z" fill="white"/>
<path d="M67.4198 0.0636238C69.598 0.0763553 71.0939 0.80205 72.0519 2.38075C72.7342 3.51386 72.8917 4.77427 72.7998 6.06015C72.7342 7.05321 72.4586 7.99534 71.8813 8.82288C71.1333 9.90506 70.0967 10.5926 68.7451 10.7835C67.5641 10.9618 66.4094 10.8981 65.3202 10.3634C64.0211 9.71409 63.2469 8.6701 62.8664 7.3333C62.4727 5.9201 62.5121 4.50691 63.0238 3.11918C63.7587 1.17126 65.6351 0.0126979 67.4198 0.0636238ZM64.7691 5.43631C64.8741 6.58214 65.0578 7.63886 65.9894 8.44094C67.2098 9.49765 69.5455 9.01385 70.1492 7.537C70.7134 6.2002 70.7528 4.86339 70.1885 3.51386C69.8342 2.67358 69.1912 2.12612 68.2596 1.97335C66.8818 1.74418 65.622 2.3171 65.1759 3.6539C64.9922 4.25228 64.9134 4.85066 64.7691 5.43631Z" fill="white"/>
<path d="M89.2701 5.4743C89.257 4.43032 89.4539 3.43727 89.9787 2.5206C90.8317 0.992821 92.1833 0.203469 93.981 0.0888859C95.8443 -0.0256974 97.3927 0.547219 98.495 2.06227C99.0592 2.83889 99.3742 3.74282 99.4398 4.68495C99.5185 5.83078 99.4792 6.97662 98.9674 8.07153C98.1538 9.80301 96.7891 10.7324 94.847 10.8725C93.876 10.9361 92.9181 10.847 92.0258 10.4014C90.543 9.66296 89.7425 8.44074 89.4276 6.8875C89.3226 6.42916 89.3226 5.94537 89.2701 5.4743ZM91.514 5.10509C91.5009 6.21273 91.6321 6.93842 91.9864 7.63865C92.7081 9.06458 94.8864 9.47199 96.1199 8.42801C96.9072 7.76597 97.1565 6.8875 97.2353 5.94537C97.3271 4.74861 97.1959 3.57731 96.2642 2.66065C95.0045 1.41296 92.695 1.82037 91.9471 3.39907C91.6321 4.06111 91.514 4.73588 91.514 5.10509Z" fill="white"/>
<path d="M10.7601 10.9363C9.94656 10.9363 9.18548 10.9491 8.43752 10.9236C8.35879 10.9236 8.24069 10.7326 8.20132 10.6053C7.99137 9.99421 7.78142 9.37037 7.58458 8.75926C7.50585 8.51736 7.37463 8.41551 7.11219 8.41551C5.95744 8.42824 4.78957 8.42824 3.63483 8.41551C3.35926 8.41551 3.21492 8.53009 3.13619 8.78472C2.93935 9.40857 2.71628 10.0069 2.51945 10.6308C2.44071 10.8727 2.30949 10.9618 2.04705 10.9618C1.37782 10.9363 0.721716 10.9491 0 10.9491C0.0918548 10.6563 0.144343 10.4144 0.236198 10.1852C1.40407 6.90046 2.58506 3.61574 3.75293 0.331019C3.83166 0.0891204 3.96288 0 4.2122 0C4.9864 0.0127315 5.77373 0.0127315 6.54794 0C6.81038 0 6.91536 0.0891204 7.00721 0.331019C8.1882 3.66667 9.36919 7.00231 10.5502 10.338C10.6158 10.5162 10.6683 10.6944 10.7601 10.9363ZM6.88911 6.68403C6.39047 5.21991 5.91808 3.83218 5.44568 2.43171C5.38007 2.43171 5.32758 2.44444 5.26197 2.44444C4.78957 3.84491 4.3303 5.24537 3.84478 6.6713C4.92079 6.68403 5.85246 6.68403 6.88911 6.68403Z" fill="white"/>
<path d="M34.9961 10.9488C35.1142 10.3631 35.206 9.86661 35.2979 9.35736C35.8097 6.51823 36.3214 3.67911 36.8332 0.839994C36.9644 0.0888368 36.9644 0.127031 37.7255 0.0761053C38.2241 0.0506424 38.4603 0.228883 38.6703 0.661753C39.9169 3.23351 41.2029 5.79254 42.4888 8.35157C42.5544 8.47888 42.6332 8.59347 42.7644 8.82263C42.83 8.55527 42.8825 8.41523 42.9087 8.27518C43.3942 5.67796 43.8798 3.068 44.3522 0.470781C44.4047 0.20342 44.4965 0.0761053 44.7983 0.0888368C45.1001 0.1143 45.3888 0.0888368 45.7562 0.0888368C45.6513 0.687216 45.5463 1.26013 45.4544 1.82032C44.9689 4.54486 44.4834 7.25666 43.9979 9.9812C43.9979 10.0067 43.9847 10.0321 43.9847 10.0576C43.7748 10.9488 43.5255 11.1143 42.5544 10.9233C42.4363 10.8979 42.3051 10.7705 42.2526 10.656C41.1372 8.40249 40.0219 6.14902 38.9065 3.89555C38.7097 3.48814 38.5128 3.08073 38.3029 2.68606C38.2373 2.55874 38.1323 2.44416 38.0535 2.31685C38.0142 2.32958 37.9879 2.32958 37.9486 2.34231C37.7649 3.39902 37.568 4.443 37.3712 5.49972C37.0563 7.2312 36.7282 8.96268 36.4002 10.6814C36.387 10.7833 36.2558 10.9233 36.164 10.9361C35.7834 10.9615 35.4422 10.9488 34.9961 10.9488Z" fill="white"/>
<path d="M77.4594 6.39117C77.4594 5.01617 77.4463 3.64117 77.4726 2.26617C77.4726 1.90969 77.3545 1.80783 77.0002 1.80783C76.1603 1.82057 75.3074 1.7951 74.4676 1.82057C74.1133 1.8333 73.969 1.73145 73.9952 1.37496C74.0214 1.03121 74.0083 0.687464 73.9952 0.343714C73.9952 0.114547 74.0739 0.0126953 74.3233 0.0126953C77.1839 0.0126953 80.0576 0.0126953 82.9182 0.0126953C83.1544 0.0126953 83.22 0.114547 83.22 0.330982C83.22 0.712927 83.2069 1.09487 83.22 1.47682C83.2332 1.74418 83.1019 1.82057 82.8526 1.82057C82.0915 1.80783 81.3305 1.82057 80.5563 1.82057C79.6902 1.82057 79.7296 1.73145 79.7296 2.60992C79.7296 5.21987 79.7296 7.82982 79.7296 10.427C79.7296 10.949 79.7296 10.949 79.1916 10.9618C78.7979 10.9618 78.4042 10.9618 78.0106 10.9618C77.4726 10.9618 77.4726 10.9618 77.4726 10.4525C77.4594 9.09024 77.4594 7.7407 77.4594 6.39117Z" fill="white"/>
<path d="M21.1928 5.46192C21.1928 3.79409 21.2059 2.12627 21.1797 0.458442C21.1797 0.114692 21.2715 -0.0126228 21.639 0.000108675C22.0851 0.0255716 22.5444 0.0383031 22.9905 0.000108675C23.3842 -0.0253543 23.4761 0.140155 23.4629 0.483905C23.4498 3.09386 23.4629 5.70381 23.4629 8.31377C23.4629 9.28136 23.4104 9.15404 24.3159 9.15404C25.5231 9.15404 26.7172 9.16678 27.9245 9.15404C28.2656 9.15404 28.3837 9.2559 28.3706 9.58692C28.3444 9.93067 28.3575 10.2744 28.3706 10.6182C28.3837 10.8855 28.2656 10.9619 28.0163 10.9619C25.8774 10.9492 23.7254 10.9492 21.5865 10.9619C21.2584 10.9619 21.2059 10.8219 21.2059 10.5545C21.2059 8.84849 21.1928 7.1552 21.1928 5.46192Z" fill="white"/>
<path d="M12.3075 5.46176C12.3075 3.79394 12.3206 2.12611 12.2944 0.458289C12.2944 0.114539 12.3862 -0.0127759 12.7536 -4.43815e-05C13.1867 0.0254186 13.6328 0.0254186 14.0659 -4.43815e-05C14.4595 -0.0255073 14.5776 0.089076 14.5776 0.483752C14.5645 3.08097 14.5645 5.6782 14.5645 8.26269C14.5645 9.24301 14.4333 9.14116 15.483 9.14116C16.6509 9.14116 17.8319 9.15389 18.9998 9.14116C19.3147 9.14116 19.459 9.23028 19.4328 9.54857C19.4066 9.87959 19.4197 10.2106 19.4328 10.5416C19.4459 10.8472 19.3278 10.949 19.0129 10.949C17.3201 10.9363 15.6274 10.949 13.9346 10.949C13.5279 10.949 13.1211 10.9363 12.7012 10.949C12.3731 10.9745 12.2812 10.8472 12.2812 10.5416C12.3206 8.84834 12.3075 7.15505 12.3075 5.46176Z" fill="white"/>
<path d="M87.17 5.47457C87.17 7.15513 87.1568 8.83568 87.1831 10.5162C87.1831 10.8727 87.0781 10.9873 86.7238 10.9618C86.2777 10.9364 85.8184 10.9364 85.3722 10.9618C84.9917 10.9873 84.8867 10.86 84.8867 10.4908C84.8998 8.09726 84.8998 5.70374 84.8998 3.31022C84.8998 2.39355 84.8998 1.48962 84.8998 0.572952C84.8998 0.0254984 84.8998 0.0254984 85.4903 0.012767C85.9234 0.012767 86.3695 0.0254984 86.8025 0.012767C87.1175 3.54778e-05 87.1962 0.101887 87.1962 0.394711C87.1568 2.088 87.17 3.78129 87.17 5.47457Z" fill="white"/>
<path d="M34.3668 0.0889538C34.2356 0.789185 34.1175 1.4003 33.9994 2.02414C33.6714 3.85747 33.3433 5.6908 33.0021 7.52414C32.8184 8.56812 32.6216 9.6121 32.4116 10.6434C32.3854 10.7579 32.2279 10.9107 32.1229 10.9234C31.7949 10.9616 31.4537 10.9362 31.0469 10.9362C31.1519 10.2359 31.2438 9.57391 31.3619 8.91187C31.5718 7.76604 31.7949 6.6202 32.0048 5.4871C32.3198 3.78108 32.6478 2.0878 32.9628 0.381778C33.0021 0.178074 33.0677 0.0762223 33.2908 0.0889538C33.6189 0.101685 33.9338 0.0889538 34.3668 0.0889538Z" fill="white"/>
</g>
<defs>
<clipPath id="clip0_10020_245">
<rect width="111" height="11" fill="white"/>
</clipPath>
</defs>
</svg>
